<?xml version="1.0" standalone="no"?>
<!DOCTYPE svg PUBLIC "-//W3C//DTD SVG 20010904//EN"
 "http://www.w3.org/TR/2001/REC-SVG-20010904/DTD/svg10.dtd">
<svg version="1.0" xmlns="http://www.w3.org/2000/svg"
 width="757.000000pt" height="757.000000pt" viewBox="0 0 757.000000 757.000000"
 preserveAspectRatio="xMidYMid meet">
<metadata>
Created by potrace 1.11, written by Peter Selinger 2001-2013
</metadata>
<g transform="translate(0.000000,757.000000) scale(0.100000,-0.100000)"
fill="#000000" stroke="none">
<path d="M2932 7339 c-101 -17 -265 -100 -413 -211 l-79 -58 -129 0 c-72 0
-141 -4 -155 -10 -38 -14 -55 -59 -68 -175 l-12 -104 -132 -135 c-272 -278
-380 -462 -534 -911 -26 -77 -78 -223 -115 -325 -37 -102 -100 -279 -140 -395
-41 -115 -95 -261 -120 -324 -72 -174 -136 -444 -185 -781 -12 -80 -37 -221
-55 -315 -34 -169 -52 -297 -100 -700 -27 -236 -101 -668 -175 -1036 -63 -311
-85 -455 -105 -699 -20 -237 -18 -303 9 -308 30 -6 36 16 36 133 1 162 51 637
66 622 3 -2 -5 -92 -16 -200 -20 -194 -26 -440 -14 -531 8 -53 36 -79 59 -54
8 7 27 93 44 192 17 98 32 180 34 182 2 2 7 -74 10 -170 4 -96 13 -192 20
-213 10 -32 17 -38 43 -41 60 -6 90 67 150 361 l36 178 61 82 c34 46 69 94 78
107 14 21 19 23 32 12 12 -10 13 -20 6 -45 -14 -51 -11 -76 16 -102 31 -32 78
-33 108 -2 14 14 48 100 91 228 58 175 72 209 93 218 28 13 38 35 105 231 51
148 248 851 344 1225 29 115 57 211 61 213 4 1 51 27 103 57 52 29 96 50 98
46 14 -40 -304 -1058 -449 -1438 -107 -281 -241 -581 -421 -946 -195 -392
-197 -400 -147 -453 37 -39 82 -49 127 -27 34 16 45 34 129 203 229 463 383
829 528 1260 l62 185 21 -65 c12 -36 35 -87 51 -115 38 -66 128 -164 194 -211
28 -21 84 -63 122 -94 89 -71 235 -170 301 -203 94 -47 308 -135 404 -165 182
-58 486 -131 610 -148 188 -25 989 -32 1115 -10 200 34 355 103 585 261 136
94 190 139 269 221 l99 104 6 -103 c3 -56 8 -210 11 -342 6 -256 29 -635 45
-775 34 -275 91 -481 150 -540 22 -22 70 -26 101 -10 69 37 143 285 233 780
42 230 51 259 81 260 6 0 23 -68 38 -151 26 -148 51 -230 137 -454 23 -60 44
-121 47 -134 3 -13 23 -42 44 -64 23 -23 39 -49 39 -63 0 -38 36 -67 73 -60
16 3 36 11 44 18 44 36 65 142 78 388 12 217 19 241 44 153 17 -60 48 -92 96
-99 57 -7 73 9 90 91 28 135 55 807 55 1355 0 391 -9 586 -36 764 -9 64 -18
250 -24 520 -6 232 -12 432 -15 446 -3 14 -14 133 -25 265 -48 579 -148 1049
-288 1360 -82 182 -191 338 -437 626 -205 240 -290 314 -561 492 -224 147
-314 197 -609 339 -387 188 -544 234 -830 248 -141 7 -185 13 -255 35 -168 52
-307 65 -690 64 -190 -1 -369 -5 -398 -10z m903 -63 c141 -27 192 -44 198 -66
4 -17 14 -20 60 -20 30 0 69 -5 87 -12 l33 -11 -28 -23 c-31 -24 -29 -54 4
-54 24 0 84 67 77 86 -4 11 11 14 80 14 186 0 401 -70 764 -247 225 -111 496
-260 487 -269 -1 -2 -37 7 -79 20 -42 13 -111 32 -154 42 -44 10 -90 25 -104
35 -94 63 -291 142 -445 177 -152 35 -268 42 -712 42 -235 0 -538 5 -673 10
-257 10 -704 47 -730 60 -9 4 -50 5 -93 2 -44 -3 -77 -1 -77 5 0 20 243 167
330 199 77 28 153 32 525 30 289 -3 378 -6 450 -20z m-1500 -293 c-55 -49
-196 -156 -199 -151 -8 8 17 145 30 166 13 20 22 22 112 22 l97 -1 -40 -36z
m282 14 c-3 -7 -32 -99 -66 -203 l-61 -190 -86 -70 c-48 -38 -148 -133 -224
-211 l-137 -142 24 132 c23 133 47 285 58 387 l6 55 112 87 c62 48 132 105
157 127 l45 40 89 1 c69 0 87 -3 83 -13z m323 -17 c102 -10 247 -22 324 -26
l138 -7 -53 -22 c-30 -12 -73 -32 -96 -43 l-42 -22 -26 26 c-26 26 -30 26
-103 20 -42 -4 -102 -16 -134 -27 -71 -24 -68 -24 -68 6 0 15 -9 31 -24 40
-22 15 -28 15 -61 1 -20 -9 -55 -30 -77 -47 l-40 -32 7 59 c10 87 13 94 43 94
15 0 110 -9 212 -20z m1775 -65 c50 -8 121 -24 159 -35 80 -22 209 -71 204
-75 -2 -2 -73 12 -158 31 -85 19 -231 49 -325 65 -93 17 -172 33 -175 36 -8 9
197 -7 295 -22z m-520 -15 c235 -17 365 -39 785 -132 311 -68 311 -68 419
-184 90 -96 155 -222 176 -339 8 -40 8 -40 -54 40 -35 44 -73 100 -86 125 -35
68 -78 115 -98 107 -27 -10 -20 -33 34 -113 98 -145 142 -275 154 -455 10
-149 7 -153 -97 -146 -75 5 -83 8 -117 40 -60 58 -241 197 -326 252 -113 73
-414 227 -431 221 -25 -10 -15 -47 31 -112 24 -35 40 -64 36 -64 -12 0 -143
95 -272 196 -140 110 -175 130 -194 114 -8 -7 -15 -17 -15 -23 0 -6 71 -83
158 -171 153 -157 292 -321 292 -347 0 -15 60 -95 161 -216 124 -147 112 -148
-38 -3 -219 212 -663 607 -786 699 l-112 83 3 48 c4 59 -10 90 -43 90 -18 0
-48 -30 -130 -127 -59 -71 -143 -179 -186 -240 -72 -102 -83 -113 -110 -113
-23 0 -42 -12 -81 -52 -28 -29 -48 -44 -44 -34 29 82 59 211 60 261 1 55 -1
60 -21 63 -21 3 -22 7 -16 70 5 60 11 74 54 133 63 85 83 133 69 159 -17 32
-36 24 -81 -35 -24 -30 -44 -53 -46 -51 -1 1 -6 37 -11 80 l-8 78 38 24 c52
33 130 63 191 73 74 12 576 13 742 1z m-1365 -48 c0 -22 -7 -32 -32 -45 -18
-8 -52 -28 -75 -42 -24 -14 -43 -22 -43 -17 0 15 73 94 104 113 41 25 46 24
46 -9z m321 -8 c11 -13 6 -21 -37 -57 -27 -22 -91 -83 -143 -134 -52 -51 -95
-93 -95 -93 -6 0 8 228 14 235 13 16 104 46 163 55 79 11 84 11 98 -6z m-321
-141 c0 -32 -4 -96 -10 -142 -8 -75 -14 -90 -56 -152 -26 -38 -49 -67 -51 -66
-2 2 6 59 18 127 19 115 21 166 5 215 -5 16 2 26 36 47 24 15 46 28 51 28 4 0
7 -26 7 -57z m338 -66 l-5 -123 -58 -103 c-32 -57 -65 -105 -74 -108 -52 -17
-103 -49 -158 -99 -35 -30 -63 -52 -63 -47 0 5 9 49 19 98 11 50 23 115 26
146 6 52 13 63 78 138 63 72 221 221 235 221 3 0 3 -55 0 -123z m-1113 -74
c-8 -59 -30 -189 -49 -288 l-33 -181 -83 -109 c-45 -61 -110 -151 -143 -202
-33 -51 -63 -90 -67 -88 -4 2 -10 30 -13 62 -5 46 -12 63 -32 81 -28 24 -34
26 -51 14 -16 -11 -100 -171 -118 -226 -15 -44 -74 -267 -90 -339 -4 -17 -16
-31 -31 -37 -14 -5 -39 -31 -55 -57 -17 -26 -30 -44 -30 -41 0 5 62 180 241
683 65 182 171 397 250 510 69 96 311 354 317 336 2 -5 -4 -59 -13 -118z
m3493 66 c145 -47 180 -63 277 -129 121 -82 221 -207 330 -412 94 -179 122
-262 169 -499 25 -123 48 -248 51 -278 l7 -55 -31 26 c-31 27 -83 44 -100 34
-5 -4 -26 22 -47 56 -112 187 -207 319 -394 548 -70 85 -132 164 -138 176 -6
11 -25 77 -41 145 -37 150 -82 245 -167 350 -35 43 -59 79 -53 79 5 0 67 -19
137 -41z m-2858 0 c0 -6 -9 -51 -21 -100 -20 -87 -21 -89 -50 -89 -16 0 -29 2
-29 5 0 29 45 154 62 172 23 25 38 30 38 12z m1075 -108 c-3 -6 -11 -11 -17
-11 -6 0 -6 6 2 15 14 17 26 13 15 -4z m-1341 -86 c-4 -8 -13 -15 -21 -15 -13
0 -13 3 -3 15 7 8 16 15 21 15 5 0 6 -7 3 -15z m1276 -55 c11 -26 9 -38 -15
-97 -14 -37 -40 -82 -56 -100 -39 -45 -49 -66 -123 -255 -97 -249 -140 -347
-236 -538 -84 -169 -130 -253 -130 -238 0 11 56 157 104 272 63 149 123 330
151 452 19 86 31 112 76 181 30 44 88 143 129 220 41 78 78 139 81 137 4 -2
12 -17 19 -34z m192 -77 c47 -50 127 -129 177 -174 50 -45 89 -84 87 -86 -1
-2 -44 16 -94 39 -80 38 -97 51 -150 115 -99 119 -133 170 -126 187 4 9 10 16
14 14 4 -2 45 -44 92 -95z m-1269 80 c2 -5 -19 -89 -48 -188 -38 -131 -69
-213 -113 -300 -33 -66 -88 -185 -122 -265 -63 -146 -336 -717 -352 -735 -4
-5 -1 15 8 44 37 125 90 264 185 483 191 440 296 701 384 956 5 13 51 17 58 5z
m-249 -45 c-21 -35 -122 -164 -194 -247 -45 -52 -103 -125 -127 -163 -25 -37
-48 -68 -50 -68 -7 0 8 131 17 155 12 33 145 170 248 256 90 74 123 95 106 67z
m399 -30 c-13 -58 -66 -235 -74 -248 -5 -10 -9 12 -9 59 0 70 3 79 40 143 23
37 43 68 45 68 1 0 1 -10 -2 -22z m1047 -106 c30 -42 55 -89 56 -103 1 -14 7
-35 13 -47 28 -52 263 -319 465 -529 71 -73 125 -133 121 -133 -24 0 -277 222
-328 287 -44 56 -70 64 -75 25 -8 -52 377 -382 649 -558 41 -27 110 -79 154
-117 188 -163 342 -263 474 -308 70 -25 106 -24 124 1 14 20 14 20 93 1 43
-11 97 -23 119 -28 l40 -9 -2 -60 c-1 -32 -6 -133 -12 -224 -20 -318 -34
-1193 -28 -1775 4 -407 2 -586 -5 -600 -21 -39 -150 -185 -206 -234 -90 -77
-337 -240 -436 -287 -106 -50 -232 -88 -340 -103 -97 -14 -624 -14 -855 -1
-227 14 -329 30 -541 85 -254 67 -301 81 -440 137 -181 73 -301 137 -422 225
-325 238 -394 308 -444 455 -44 129 -43 179 10 363 57 198 110 434 130 574 13
87 36 340 36 387 0 7 37 38 83 70 186 129 365 288 508 450 81 92 95 104 124
104 29 0 196 39 236 55 11 4 18 0 22 -14 3 -12 13 -21 22 -21 24 0 172 100
240 162 130 119 398 530 470 722 40 108 45 181 29 440 -14 230 -19 251 -52
238 -12 -4 -14 -20 -8 -86 15 -188 19 -442 7 -496 -31 -143 -287 -572 -440
-738 -44 -48 -51 -52 -69 -41 -18 11 -26 7 -71 -33 -41 -37 -69 -51 -148 -76
-108 -35 -223 -63 -223 -55 0 2 38 58 85 123 47 66 115 165 152 222 36 57 63
92 59 78 -3 -14 -9 -54 -12 -90 -5 -54 -3 -68 10 -79 13 -11 19 -11 33 0 52
43 261 605 353 949 49 183 56 207 105 324 l38 90 -22 17 c-21 17 -22 21 -11
106 10 83 55 234 69 232 3 0 31 -35 61 -77z m2429 -81 c263 -308 357 -449 444
-666 127 -316 208 -733 262 -1345 24 -264 45 -793 32 -780 -2 3 -19 56 -37
119 -28 100 -33 135 -40 305 -19 413 -62 701 -120 816 -21 40 -73 90 -95 90
-7 0 -23 -12 -34 -26 -24 -30 -21 -34 -51 86 -33 132 -79 267 -120 357 -28 60
-42 110 -55 190 -31 205 -96 525 -121 593 -34 96 -103 242 -158 334 -58 98
-44 86 93 -73z m-3265 77 c-17 -33 -236 -312 -254 -323 -5 -3 3 30 17 72 18
55 38 92 66 123 51 56 167 160 179 160 5 0 1 -15 -8 -32z m1586 -89 c47 -31
103 -66 125 -79 24 -14 84 -76 150 -157 159 -194 160 -196 100 -151 -28 21
-102 73 -166 116 -103 69 -126 89 -199 182 -45 58 -99 123 -119 144 -41 45
-50 49 109 -55z m202 38 c100 -68 340 -258 334 -264 -3 -3 -54 18 -113 47
-105 49 -114 56 -212 161 -56 60 -99 109 -94 109 4 0 43 -24 85 -53z m-1681
-10 c-25 -39 -27 -30 -4 18 10 20 19 32 21 26 2 -6 -6 -26 -17 -44z m2516 -89
c33 -50 52 -100 92 -238 28 -96 89 -287 136 -425 47 -137 85 -254 85 -260 0
-5 -16 15 -37 45 -127 192 -273 380 -387 498 l-79 82 56 0 c39 0 62 5 78 19
23 18 24 26 24 133 0 62 -3 134 -7 161 -4 26 -6 47 -5 47 2 0 22 -28 44 -62z
m-2354 -100 c-83 -129 -96 -142 -49 -51 32 61 99 153 112 153 2 0 -26 -46 -63
-102z m-1024 40 c-45 -113 -116 -305 -128 -351 -14 -48 -83 -138 -96 -125 -4
4 -10 39 -13 77 l-5 70 72 116 c69 113 176 265 186 265 3 0 -5 -24 -16 -52z
m2041 -134 c52 -40 183 -145 290 -234 107 -89 240 -197 295 -240 159 -124 181
-147 200 -213 9 -32 15 -61 12 -64 -7 -6 -138 81 -247 166 -139 106 -762 731
-675 677 17 -11 73 -52 125 -92z m-2326 -15 l-7 -91 -118 -211 c-65 -117 -123
-219 -128 -227 -7 -10 -10 22 -10 101 l-1 116 80 128 c73 117 181 274 188 275
1 0 0 -41 -4 -91z m1660 7 c-3 -15 -8 -25 -11 -23 -2 3 -1 17 3 31 3 15 8 25
11 23 2 -3 1 -17 -3 -31z m1599 -56 c22 0 176 -141 286 -262 154 -168 400
-481 495 -630 32 -50 90 -188 82 -195 -1 -2 -36 36 -77 84 -41 48 -135 153
-209 233 -133 143 -305 331 -552 605 -69 77 -144 158 -167 180 -23 21 -41 42
-41 46 0 3 38 -9 85 -27 46 -19 91 -34 98 -34z m641 -82 c97 -147 169 -274
260 -458 l52 -105 -4 -209 -4 -208 -51 93 c-38 70 -83 193 -184 493 -129 389
-175 536 -168 536 3 0 47 -64 99 -142z m-2544 20 c-18 -57 -69 -195 -115 -308
-100 -250 -164 -464 -152 -512 4 -14 -15 -59 -59 -138 -56 -100 -74 -124 -122
-160 -87 -65 -183 -100 -276 -100 -46 0 -48 1 -34 18 9 9 38 50 66 89 48 71
50 72 55 44 7 -35 33 -46 63 -26 48 31 142 233 259 557 53 146 84 213 162 347
118 206 177 301 181 296 2 -2 -10 -50 -28 -107z m-333 -74 c-94 -242 -284
-658 -394 -861 l-47 -88 -8 43 c-7 40 -3 51 67 177 81 146 257 496 350 697 33
70 61 126 63 124 2 -2 -12 -44 -31 -92z m-291 9 c-24 -46 -56 -89 -56 -77 0
11 59 104 66 104 3 0 -2 -12 -10 -27z m31 -289 c-217 -450 -218 -453 -228
-427 -4 11 -18 29 -31 39 l-24 18 120 181 c67 100 162 251 211 337 50 86 91
155 93 154 1 -2 -62 -138 -141 -302z m-736 100 c6 -8 24 -14 40 -14 16 0 29
-4 29 -9 0 -5 -33 -99 -74 -208 -88 -235 -151 -437 -181 -586 -12 -62 -28
-113 -36 -118 -20 -13 -101 -10 -120 4 -43 33 -49 57 -34 136 8 41 24 138 36
215 24 158 15 136 182 444 l121 223 13 -37 c7 -20 18 -43 24 -50z m345 -130
c-47 -141 -65 -180 -163 -344 -60 -102 -136 -232 -169 -289 -73 -128 -84 -111
-12 20 29 53 130 249 223 436 94 186 171 339 172 338 2 -1 -21 -73 -51 -161z
m-1006 -270 c-42 -88 -61 -108 -36 -37 22 62 69 149 73 136 3 -7 -14 -51 -37
-99z m2089 37 c-6 -18 -13 -30 -15 -28 -2 2 1 18 7 36 6 18 13 30 15 28 2 -2
-1 -18 -7 -36z m1940 -205 c24 -31 41 -59 38 -62 -8 -8 -319 153 -361 188 -20
16 -35 32 -33 34 2 2 23 -3 47 -11 23 -8 46 -15 51 -15 19 0 39 34 39 68 l1
37 87 -91 c48 -51 107 -117 131 -148z m-2489 75 c-44 -112 -119 -265 -125
-259 -11 11 39 152 82 233 91 167 103 175 43 26z m475 -71 c-53 -148 -76 -198
-61 -135 11 43 108 296 112 292 3 -2 -21 -73 -51 -157z m2215 -50 c69 -51 130
-97 135 -102 14 -13 -54 -1 -135 23 l-65 19 -41 85 c-23 47 -36 81 -30 77 6
-5 67 -51 136 -102z m-3101 41 l14 -44 -66 -131 c-85 -170 -124 -271 -139
-356 -10 -59 -10 -71 5 -93 20 -31 18 -32 -95 -42 l-77 -7 15 54 c68 238 192
536 266 641 30 42 59 33 77 -22z m-29 -406 c-74 -129 -103 -175 -112 -175 -8
0 17 105 37 155 10 22 42 85 74 140 l56 100 3 -56 c3 -52 -1 -63 -58 -164z
m3449 16 c1 -82 -6 -57 -12 44 -4 63 -3 78 3 50 5 -22 9 -64 9 -94z m-4624
-107 c-65 -507 -101 -738 -104 -673 -1 27 -28 44 -45 29 -20 -16 -33 -87 -50
-282 -8 -92 -19 -175 -24 -185 -9 -17 -17 -43 -63 -218 l-18 -70 4 55 c3 30
25 221 50 423 43 352 47 377 105 585 51 186 103 358 151 504 7 21 14 36 16 34
2 -2 -7 -93 -22 -202z m4871 34 l51 -53 6 -206 c4 -114 19 -415 33 -670 28
-506 28 -688 -1 -1109 -31 -439 -101 -1110 -116 -1110 -31 0 -91 158 -109 285
-28 198 -20 924 16 1529 30 485 28 1222 -3 1411 l-6 39 39 -31 c21 -17 62 -55
90 -85z m-3249 73 c-4 -20 -1 -33 9 -42 13 -10 11 -16 -12 -40 -14 -15 -54
-39 -87 -54 -34 -15 -101 -45 -149 -66 -73 -32 -104 -40 -195 -49 -59 -5 -111
-10 -115 -10 -4 0 18 23 47 51 30 28 73 75 96 105 l41 54 78 0 c80 0 171 22
240 59 48 26 53 25 47 -8z m-1233 -20 c46 -22 83 -24 126 -7 11 5 20 -4 29
-26 8 -18 14 -38 14 -45 0 -6 -40 -68 -87 -136 -79 -113 -91 -126 -127 -135
l-39 -10 0 136 c0 123 16 257 30 249 3 -2 27 -13 54 -26z m314 -66 c-6 -14
-15 -25 -20 -25 -11 0 -10 7 4 30 18 29 30 25 16 -5z m115 -105 c-14 -47 -31
-90 -37 -97 -6 -6 -38 -15 -71 -19 l-60 -7 60 59 c33 33 76 81 94 107 19 26
36 46 37 44 2 -1 -9 -41 -23 -87z m-163 22 c0 -14 -58 -77 -65 -70 -4 4 5 23
20 42 26 34 45 46 45 28z m875 -41 c-3 -6 -18 -11 -33 -11 l-27 1 30 13 c32
14 41 13 30 -3z m-83 -98 c-46 -64 -350 -349 -454 -427 l-36 -27 1 33 c2 27
-2 33 -18 33 -16 0 -24 -13 -39 -60 -16 -52 -26 -65 -65 -92 -93 -63 -163
-105 -168 -100 -10 10 87 356 124 442 l38 89 120 26 c66 15 167 42 225 60 97
31 174 45 258 49 l33 1 -19 -27z m-521 -34 c-53 -12 -88 -16 -94 -10 -6 6 9
12 39 16 27 3 56 8 64 9 8 2 29 4 45 4 17 0 -8 -9 -54 -19z m-164 -15 c-3 -3
-12 -4 -19 -1 -8 3 -5 6 6 6 11 1 17 -2 13 -5z m-231 -52 c16 -25 -6 -181 -53
-367 -37 -147 -38 -149 -41 -95 -2 30 4 101 14 158 13 78 14 106 5 115 -34 34
-64 -83 -82 -321 -13 -190 -13 -188 -51 -201 -17 -6 -33 -9 -35 -7 -2 2 1 57
6 122 6 66 11 185 11 266 l0 148 68 84 c42 53 80 90 102 100 45 19 43 19 56
-2z m138 -234 c-42 -123 -79 -226 -83 -230 -3 -4 1 45 11 110 9 64 17 168 17
230 l1 112 65 0 64 0 -75 -222z m-473 29 c-13 -13 -15 24 -3 63 6 22 7 21 10
-14 2 -21 -1 -43 -7 -49z m-16 -273 c-29 -284 -35 -313 -67 -314 -10 0 -12
-22 23 227 27 191 42 254 56 240 2 -2 -4 -71 -12 -153z m161 -341 c-6 -54
-126 -496 -133 -490 -1 2 8 77 21 168 14 90 30 207 36 260 11 90 14 97 39 106
43 17 44 16 37 -44z m-206 -31 c0 -22 -193 -1156 -220 -1297 -28 -142 -58
-241 -60 -194 0 27 -27 44 -45 29 -11 -9 -15 -35 -15 -102 l0 -90 -52 -80
c-29 -43 -54 -75 -55 -71 -2 4 17 107 40 228 43 216 44 220 69 221 14 1 30 4
36 8 32 19 78 242 182 881 39 237 75 440 80 453 9 21 40 32 40 14z m-399 -461
c-27 -218 -74 -549 -106 -741 -43 -249 -125 -673 -132 -680 -3 -3 -2 94 2 215
6 198 11 246 52 480 25 143 61 375 82 516 l36 256 35 39 c43 48 46 41 31 -85z
m5566 -596 c38 -217 57 -356 57 -405 -1 -79 -29 -225 -45 -235 -5 -4 -9 0 -9
7 0 7 -7 83 -15 168 -24 254 -60 827 -50 805 2 -5 30 -158 62 -340z m-6000
-557 c-3 -8 -6 -5 -6 6 -1 11 2 17 5 13 3 -3 4 -12 1 -19z m6088 -344 c-15
-93 -28 -171 -30 -173 -6 -6 -14 38 -26 156 l-11 112 26 32 c15 17 34 45 44
63 l17 31 3 -26 c2 -14 -9 -102 -23 -195z m-666 18 c22 -34 56 -71 75 -84 25
-16 36 -30 36 -48 0 -35 -64 -450 -91 -595 l-23 -120 -7 55 c-13 99 -42 866
-32 856 2 -1 20 -30 42 -64z m349 -36 c-14 -17 -19 1 -12 40 l8 39 6 -35 c3
-19 3 -39 -2 -44z"/>
<path d="M3024 3845 c-4 -9 -2 -21 4 -27 15 -15 44 -1 40 19 -4 23 -36 29 -44
8z"/>
<path d="M4753 3844 c-3 -8 -1 -20 5 -26 16 -16 42 -2 42 22 0 24 -38 28 -47
4z"/>
<path d="M4235 3131 c-3 -6 -10 -64 -16 -128 -10 -133 -18 -161 -65 -253 -97
-188 -202 -287 -326 -309 -94 -16 -221 -14 -266 4 -45 19 -160 131 -211 205
-75 108 -81 128 -81 249 0 112 -7 134 -36 110 -13 -10 -15 -34 -12 -134 l3
-121 50 -85 c31 -52 82 -116 135 -170 104 -104 138 -119 280 -119 226 0 313
46 440 231 109 158 137 242 142 424 3 86 1 100 -14 103 -9 2 -19 -2 -23 -7z"/>
</g>
</svg>
